<svg width="23" height="22" viewBox="0 0 23 22" fill="none" xmlns="http://www.w3.org/2000/svg">
<path d="M20.8077 10.7199H20.6497C20.001 7.82039 17.4118 5.64295 14.3205 5.64295H12.3462V4.9209C13.3277 4.57116 14.0385 3.64039 14.0385 2.54039C14.0385 1.14141 12.899 0.00192779 11.5 0.00192779C10.101 0.00192779 8.96154 1.14141 8.96154 2.54039C8.96154 3.64039 9.67231 4.57116 10.6538 4.9209V5.64295H8.67949C5.5882 5.64295 2.99897 7.82039 2.35026 10.7199H2.19231C1.26154 10.7199 0.5 11.4814 0.5 12.4122V14.1045C0.5 15.0353 1.26154 15.7968 2.19231 15.7968H2.50256C3.16821 17.8727 4.84923 19.486 6.95897 20.0727C6.80103 20.4055 6.70513 20.7665 6.70513 21.1558C6.70513 21.624 7.08308 22.0019 7.55128 22.0019H15.4487C15.9169 22.0019 16.2949 21.624 16.2949 21.1558C16.2949 20.7665 16.199 20.3999 16.041 20.0727C18.1508 19.4917 19.8318 17.8727 20.4974 15.7968H20.8077C21.7385 15.7968 22.5 15.0353 22.5 14.1045V12.4122C22.5 11.4814 21.7385 10.7199 20.8077 10.7199ZM11.5 1.69424C11.9682 1.69424 12.3462 2.07218 12.3462 2.54039C12.3462 3.00859 11.9682 3.38654 11.5 3.38654C11.0318 3.38654 10.6538 3.00859 10.6538 2.54039C10.6538 2.07218 11.0318 1.69424 11.5 1.69424ZM14.3205 18.6173H8.67949C6.03385 18.6173 3.88462 16.4681 3.88462 13.8224V12.1301C3.88462 9.48449 6.03385 7.33526 8.67949 7.33526H14.3205C16.9662 7.33526 19.1154 9.48449 19.1154 12.1301V13.8224C19.1154 16.4681 16.9662 18.6173 14.3205 18.6173Z" fill="#097FE8"/>
<path d="M8.39744 9.59167C7.46667 9.59167 6.70513 10.3532 6.70513 11.284V12.9763C6.70513 13.9071 7.46667 14.6686 8.39744 14.6686C9.3282 14.6686 10.0897 13.9071 10.0897 12.9763V11.284C10.0897 10.3532 9.3282 9.59167 8.39744 9.59167Z" fill="#097FE8"/>
<path d="M14.6026 9.59167C13.6718 9.59167 12.9103 10.3532 12.9103 11.284V12.9763C12.9103 13.9071 13.6718 14.6686 14.6026 14.6686C15.5333 14.6686 16.2949 13.9071 16.2949 12.9763V11.284C16.2949 10.3532 15.5333 9.59167 14.6026 9.59167Z" fill="#097FE8"/>
<path d="M5.59385 1.64911L7.28615 2.21321C7.37641 2.24142 7.46667 2.25834 7.55128 2.25834C7.90667 2.25834 8.23385 2.0327 8.35231 1.67731C8.49897 1.23167 8.26205 0.752184 7.81641 0.605518L6.1241 0.0414152C5.6841 -0.105251 5.20462 0.131671 5.05231 0.577312C4.9 1.02295 5.14256 1.50244 5.5882 1.64911H5.59385Z" fill="#097FE8"/>
<path d="M5.85897 5.07885C5.94923 5.07885 6.03949 5.06757 6.1241 5.03372L7.81641 4.46962C8.26205 4.32295 8.49897 3.84347 8.35231 3.39783C8.20564 2.95218 7.72615 2.71526 7.28051 2.86193L5.5882 3.42603C5.14256 3.5727 4.90564 4.05218 5.05231 4.49783C5.17077 4.85321 5.49795 5.07885 5.85333 5.07885H5.85897Z" fill="#097FE8"/>
<path d="M15.4487 2.25834C15.539 2.25834 15.6292 2.24706 15.7138 2.21321L17.4062 1.64911C17.8518 1.50244 18.0887 1.02295 17.942 0.577312C17.7954 0.131671 17.3159 -0.105251 16.8703 0.0414152L15.1779 0.605518C14.7323 0.752184 14.4954 1.23167 14.6421 1.67731C14.7605 2.0327 15.0877 2.25834 15.4431 2.25834H15.4487Z" fill="#097FE8"/>
<path d="M15.1836 4.46962L16.8759 5.03372C16.9662 5.06193 17.0564 5.07885 17.141 5.07885C17.4964 5.07885 17.8236 4.85321 17.942 4.49783C18.0887 4.05218 17.8518 3.5727 17.4062 3.42603L15.7138 2.86193C15.2738 2.71526 14.7887 2.95218 14.6421 3.39783C14.4954 3.84347 14.7323 4.32295 15.1779 4.46962H15.1836Z" fill="#097FE8"/>
</svg>
